<?xml version="1.0" ?><svg id="Layer_1" style="enable-background:new 0 0 128 128;" version="1.1" viewBox="0 0 128 128" xml:space="preserve" xmlns="http://www.w3.org/2000/svg" xmlns:xlink="http://www.w3.org/1999/xlink"><g><path d="M110.1,88.9L60.6,39.4C57.8,36.6,54,35,50,35s-7.8,1.6-10.6,4.4C36.6,42.2,35,46,35,50s1.6,7.8,4.4,10.6l49.5,49.5   c2.9,2.9,6.8,4.4,10.6,4.4c3.8,0,7.7-1.5,10.6-4.4C116,104.3,116,94.7,110.1,88.9z M53.5,53.5c-2,2-5.1,2-7.1,0s-2-5.1,0-7.1   s5.1-2,7.1,0S55.5,51.6,53.5,53.5z"/><path d="M25,50c0-6.7,2.6-13,7.3-17.7c9.7-9.7,25.6-9.7,35.4,0l7.1-7.1c-13.6-13.6-35.8-13.6-49.5,0c-13.6,13.6-13.6,35.9,0,49.5   l14.1,14.1l7.1-7.1L32.3,67.7C27.6,63,25,56.7,25,50z"/></g></svg>