<?xml version="1.0" encoding="utf-8"?>
<svg id="Layer_1" style="enable-background:new 0 0 128 128;" version="1.1" viewBox="0 0 128 128" xmlns="http://www.w3.org/2000/svg">
  <defs/>
  <rect width="128" height="128" style="fill: rgb(255, 255, 255);"/>
  <g transform="matrix(0.625472, 0, 0, 0.625472, 23.969946, 23.969791)">
    <path d="M 122.259 95.067 L 58.581 31.389 C 54.979 27.787 50.09 25.729 44.944 25.729 C 39.799 25.729 34.91 27.787 31.308 31.389 C 27.706 34.991 25.648 39.879 25.648 45.025 C 25.648 50.171 27.706 55.059 31.308 58.661 L 94.987 122.34 C 98.717 126.07 103.734 128 108.623 128 C 113.511 128 118.528 126.07 122.259 122.34 C 129.849 114.878 129.849 102.529 122.259 95.067 Z M 49.447 49.528 C 46.874 52.101 42.886 52.101 40.313 49.528 C 37.74 46.955 37.74 42.967 40.313 40.394 C 42.886 37.821 46.874 37.821 49.447 40.394 C 52.02 42.967 52.02 47.083 49.447 49.528 Z"/>
    <path d="M 12.784 45.025 C 12.784 36.406 16.128 28.302 22.175 22.255 C 34.653 9.777 55.107 9.777 67.714 22.255 L 76.848 13.122 C 59.353 -4.374 30.794 -4.374 13.17 13.122 C -4.326 30.617 -4.326 59.305 13.17 76.8 L 31.308 94.939 L 40.442 85.805 L 22.175 67.795 C 16.128 61.749 12.784 53.644 12.784 45.025 Z"/>
  </g>
</svg>